<svg width="20.000000" height="20.000000" viewBox="0 0 20 20" fill="none" xmlns="http://www.w3.org/2000/svg" xmlns:xlink="http://www.w3.org/1999/xlink">
	<desc>
			Created with Pixso.
	</desc>
	<defs/>
	<path id="Vector 203 (Stroke)" d="M0.58 0.58C1.36 -0.2 2.63 -0.2 3.41 0.58L10 7.17L16.58 0.58C17.36 -0.2 18.63 -0.2 19.41 0.58C20.19 1.36 20.19 2.63 19.41 3.41L12.82 10L19.41 16.58C20.19 17.36 20.19 18.63 19.41 19.41C18.63 20.19 17.36 20.19 16.58 19.41L10 12.82L3.41 19.41C2.63 20.19 1.36 20.19 0.58 19.41C-0.2 18.63 -0.2 17.36 0.58 16.58L7.17 10L0.58 3.41C-0.2 2.63 -0.2 1.36 0.58 0.58Z" fill="#000000" fill-opacity="1.000000" fill-rule="evenodd"/>
</svg>
