<svg width="24.000000" height="14.000000" viewBox="0 0 24 14" fill="none" xmlns="http://www.w3.org/2000/svg" xmlns:xlink="http://www.w3.org/1999/xlink">
	<desc>
			Created with Pixso.
	</desc>
	<defs/>
	<path id="Union" d="M23 2L23 12C23 12.55 22.55 13 22 13L2 13C1.44 13 1 12.55 1 12L1 2C1 1.89 1.01 1.78 1.04 1.68L10.41 9.35C11.33 10.1 12.66 10.1 13.58 9.35L22.95 1.68C22.98 1.78 23 1.89 23 2ZM22.18 1.01L12.95 8.57C12.39 9.02 11.6 9.02 11.05 8.57L1.81 1.01C1.87 1 1.93 1 2 1L22 1C22.06 1 22.12 1 22.18 1.01ZM22 0C23.1 0 24 0.89 24 2L24 12C24 13.1 23.1 14 22 14L2 14C0.89 14 0 13.1 0 12L0 2C0 0.89 0.89 0 2 0L22 0Z" fill="#432EAB" fill-opacity="1.000000" fill-rule="evenodd"/>
</svg>
