<svg width="24.000000" height="24.000000" viewBox="0 0 24 24" fill="none" xmlns="http://www.w3.org/2000/svg" xmlns:xlink="http://www.w3.org/1999/xlink">
	<desc>
			Created with Pixso.
	</desc>
	<defs/>
	<rect id="Frame 4806" width="24.000000" height="24.000000" fill="#FFFFFF" fill-opacity="0"/>
	<path id="Union" d="M17 1L7 1C6.44 1 6 1.44 6 2L6 2.5L18 2.5L18 2C18 1.7 17.87 1.43 17.66 1.25C17.48 1.09 17.25 1 17 1ZM5 2.5L5 3.5L5 18.5L5 19.5L5 22C5 23.1 5.89 24 7 24L17 24C17.66 24 18.24 23.67 18.6 23.18C18.85 22.85 19 22.44 19 22L19 19.5L19 18.5L19 3.5L19 3L19 2C19 0.89 18.1 0 17 0L7 0C6.54 0 6.13 0.14 5.79 0.39C5.31 0.76 5 1.34 5 2L5 2.5ZM6 3.5L6 18.5L18 18.5L18 3.5L6 3.5ZM6 22L6 19.5L18 19.5L18 22C18 22.55 17.55 23 17 23L7 23C6.69 23 6.41 22.85 6.23 22.63C6.08 22.46 6 22.24 6 22ZM13 21C13 21.55 12.55 22 12 22C11.44 22 11 21.55 11 21C11 20.44 11.44 20 12 20C12.55 20 13 20.44 13 21Z" fill="#432EAB" fill-opacity="1.000000" fill-rule="evenodd"/>
</svg>
